<svg width="224" height="257" viewBox="0 0 224 257" fill="none" xmlns="http://www.w3.org/2000/svg">
<path fill-rule="evenodd" clip-rule="evenodd" d="M179.956 256.285V162.441C179.956 148.07 176.676 135.729 170.115 125.419C163.866 114.796 155.431 106.673 144.808 101.05C134.498 95.4262 123.407 92.6144 111.535 92.6144C99.6632 92.6144 88.4159 95.4262 77.7935 101.05C67.4835 106.673 59.0481 114.796 52.4872 125.419C46.2387 135.729 43.1145 148.07 43.1145 162.441V256.285H0V161.972C0 140.728 4.68636 122.138 14.0591 106.205C23.7442 90.2712 37.0222 77.9305 53.8931 69.1826C70.764 60.1223 89.9781 55.5922 111.535 55.5922C133.405 55.5922 152.619 60.1223 169.177 69.1826C186.048 77.9305 199.17 90.2712 208.543 106.205C218.228 122.138 223.071 140.728 223.071 161.972V256.285H179.956Z" fill="#B33F0E"/>
<rect x="208.689" width="32.951" height="194.044" transform="rotate(90 208.689 0)" fill="#B33F0E"/>
</svg>
