<svg width="224" height="257" viewBox="0 0 224 257" fill="none" xmlns="http://www.w3.org/2000/svg">
<path d="M111.535 55.5922C133.405 55.5922 152.619 60.1227 169.178 69.183C186.048 77.9308 199.17 90.2711 208.543 106.204C218.228 122.138 223.07 140.727 223.07 161.972V256.286H179.956V162.441C179.956 148.07 176.676 135.729 170.115 125.419C163.867 114.797 155.431 106.674 144.809 101.05C134.499 95.4265 123.407 92.6146 111.535 92.6146C99.6632 92.6146 88.4163 95.4266 77.7939 101.05C67.484 106.674 59.0482 114.797 52.4873 125.419C46.239 135.729 43.1143 148.07 43.1143 162.441V256.286H0V161.972C6.11639e-05 140.727 4.68594 122.138 14.0586 106.204C23.7437 90.2709 37.0227 77.9308 53.8936 69.183C70.7644 60.1228 89.978 55.5922 111.535 55.5922Z" fill="white"/>
<rect x="208.689" width="32.951" height="194.044" transform="rotate(90 208.689 0)" fill="white"/>
</svg>
