<svg width="459" height="126" viewBox="0 0 459 126" fill="none" xmlns="http://www.w3.org/2000/svg">
<path d="M425.999 123.002C416.563 123.002 408.195 121.261 400.893 117.779C393.592 114.184 387.863 109.185 383.706 102.783C379.663 96.2674 377.641 88.6851 377.641 80.0356C377.641 71.4985 379.382 63.86 382.864 57.1201C386.346 50.268 391.176 44.8761 397.355 40.9445C403.533 37.013 410.722 35.0472 418.922 35.0472C427.796 35.0472 435.154 36.9568 440.995 40.776C446.949 44.5953 451.386 49.7625 454.306 56.2777C457.227 62.6805 458.687 69.8697 458.687 77.8452C458.687 79.0808 458.631 80.3726 458.519 81.7206C458.519 83.0685 458.406 84.248 458.182 85.259H394.153C394.715 90.5385 396.456 95.0317 399.377 98.7386C402.297 102.333 406.004 105.085 410.497 106.995C415.103 108.792 420.158 109.691 425.662 109.691H448.072V123.002H425.999ZM393.985 74.3067H443.017C443.017 72.1724 442.792 69.9258 442.343 67.5669C441.894 65.0956 441.107 62.7367 439.984 60.4901C438.861 58.1311 437.344 56.053 435.435 54.2557C433.637 52.3461 431.335 50.8296 428.526 49.7063C425.83 48.583 422.629 48.0214 418.922 48.0214C414.991 48.0214 411.508 48.8077 408.475 50.3803C405.555 51.8406 403.027 53.8626 400.893 56.4462C398.759 58.9174 397.13 61.7257 396.007 64.871C394.883 68.0162 394.209 71.1615 393.985 74.3067Z" fill="white"/>
<path d="M342.209 123.002V0H357.711V123.002H342.209Z" fill="white"/>
<path d="M274.191 125.024C267.676 125.024 261.723 124.013 256.331 121.991C250.939 119.857 246.277 116.768 242.346 112.724C238.414 108.68 235.325 103.85 233.078 98.2332C230.944 92.5043 229.877 86.1014 229.877 79.0246C229.877 70.0381 231.674 62.2873 235.269 55.7722C238.976 49.1446 243.974 44.0336 250.265 40.439C256.668 36.8445 263.801 35.0472 271.664 35.0472C276.045 35.0472 280.201 35.7773 284.133 37.2376C288.177 38.6979 291.771 40.7199 294.916 43.3035C298.062 45.8871 300.533 48.92 302.33 52.4022H302.667V0H318.169V79.5301C318.169 89.0782 316.203 97.2783 312.271 104.131C308.452 110.87 303.229 116.038 296.601 119.632C290.086 123.227 282.616 125.024 274.191 125.024ZM274.191 111.713C279.471 111.713 284.245 110.421 288.514 107.837C292.782 105.254 296.152 101.603 298.623 96.8852C301.207 92.1673 302.499 86.6069 302.499 80.2041C302.499 73.6889 301.207 68.0724 298.623 63.3545C296.152 58.5243 292.782 54.8174 288.514 52.2337C284.245 49.6501 279.415 48.3583 274.023 48.3583C268.743 48.3583 263.913 49.7063 259.532 52.4022C255.264 55.0982 251.838 58.8051 249.254 63.523C246.783 68.2409 245.547 73.7451 245.547 80.0356C245.547 86.5508 246.839 92.1673 249.422 96.8852C252.006 101.603 255.432 105.254 259.701 107.837C264.082 110.421 268.912 111.713 274.191 111.713Z" fill="white"/>
<path d="M0 123.002L40.102 16.344C41.8993 11.7385 44.3706 8.36857 47.5159 6.23429C50.6611 4.10001 54.3119 3.03287 58.4681 3.03287C62.6243 3.03287 66.2751 4.10001 69.4203 6.23429C72.6779 8.25624 75.1492 11.57 76.8342 16.1756L117.105 123.002H99.4126L89.1344 94.5262H27.4648L17.0181 123.002H0ZM32.5197 80.204H84.248L63.186 21.7359C62.6243 20.2756 62.0065 19.1523 61.3325 18.366C60.6586 17.5797 59.7037 17.1865 58.4681 17.1865C57.3448 17.1865 56.4462 17.5797 55.7722 18.366C55.0982 19.1523 54.5365 20.2756 54.0872 21.7359L32.5197 80.204Z" fill="white"/>
<path d="M168.77 50.8437C176.633 50.8437 183.542 52.4728 189.495 55.7304C195.561 58.8756 200.279 63.3123 203.648 69.041C207.131 74.7698 208.872 81.4542 208.872 89.0927V123.002H193.37V89.2607C193.37 84.0935 192.191 79.6561 189.832 75.9492C187.585 72.1301 184.553 69.2093 180.733 67.1874C177.026 65.1655 173.038 64.1552 168.77 64.1552C164.501 64.1553 160.458 65.1657 156.639 67.1874C152.932 69.2094 149.898 72.13 147.539 75.9492C145.292 79.6561 144.17 84.0935 144.17 89.2607V123.002H128.668V89.0927C128.668 81.4542 130.353 74.7698 133.723 69.041C137.205 63.3122 141.979 58.8756 148.045 55.7304C154.111 52.4729 161.019 50.8438 168.77 50.8437Z" fill="white"/>
<rect x="203.701" y="30.8557" width="11.8474" height="69.7679" transform="rotate(90 203.701 30.8557)" fill="white"/>
</svg>
