<svg width="1080" height="1080" viewBox="0 0 1080 1080" fill="none" xmlns="http://www.w3.org/2000/svg">
<rect width="1080" height="1080" rx="540" fill="#7209B7"/>
<path d="M436.25 307.616C437.45 310.46 440.224 313.366 442.666 315.35C443.429 315.974 444.188 314.876 444.761 315.275C445.88 316.056 446.045 317.382 447.232 318.098C447.63 318.331 448.967 316.79 449.348 317.061C451.421 318.552 452.284 320.709 454 322.481C462.461 331.212 469.696 340.507 477.269 350.025C479.757 353.153 483.981 356.172 485.654 360.02C485.848 360.471 484.255 361.208 484.188 361.364C483.19 363.782 485.812 361.419 486.723 361.933C490.331 363.972 492.805 367.324 494.266 370.658C494.883 372.081 491.18 372.753 493.639 372.935C493.807 372.95 495.11 371.596 495.507 371.831C496.405 372.366 497.142 374.034 497.679 374.564C498.718 375.575 498.834 375.78 499.606 376.878C500.675 378.37 502.656 379.658 503.415 381.515C503.572 381.915 501.701 382.516 501.811 383.249C501.923 383.983 503.047 385.353 503.751 385.599C504.456 385.844 505.538 384.8 505.879 384.697C508.741 383.808 506.61 387.738 506.677 388.011C508 392.936 512.171 395.053 514.711 398.808C516.631 401.655 518.057 405.088 519.976 407.736C522.268 410.888 524.959 413.039 526.921 416.251C527.13 416.588 525.034 417.446 525.285 417.861C527.983 422.307 531.037 426.391 535.166 429.829C535.581 430.172 536.821 428.53 537.333 428.808C540.431 430.536 546.404 432.518 540.422 438.803C541.898 440.399 543.635 442.364 546.12 442.994C547.72 443.401 548.81 441.224 548.905 442.984C548.928 443.38 547.141 444.05 547.292 444.564C547.931 446.729 549.741 448.336 550.144 450.654C550.222 451.126 548.775 451.957 548.595 452.226C547.161 454.441 551.449 453.629 551.901 453.778C555.3 454.938 555.736 457.12 557.273 459.313C557.63 459.82 555.366 460.458 555.643 460.991C557.102 463.737 559.038 466.278 561.533 468.218C562.092 468.646 563.332 467.077 563.68 467.227C565.194 467.901 562.391 470.177 563.792 470.873C564.084 471.022 565.348 469.981 565.526 469.925C568.316 469.042 565.404 471.848 565.448 472.071C565.93 474.949 570.326 474.045 571.256 476.494C571.364 476.789 569.267 477.364 569.674 478.123C572.42 483.253 576.221 487.928 580.774 491.79C581.476 492.386 582.415 491.001 582.605 490.942C585.592 490.044 582.589 492.748 582.623 493.071C582.983 495.567 586.93 495.448 583.832 499.39C590.563 506.533 593.577 515.931 602.426 521.61C602.534 521.684 604.059 520.42 604.267 520.572C606.791 522.395 603.927 523.61 601.852 527.266C601.336 528.192 605.931 526.956 606.28 526.884C607.563 526.614 609.738 524.59 610.024 524.594C612.305 524.687 604.09 529.825 605.067 531.318C605.111 531.356 606.473 530.182 606.703 530.21C607.424 530.293 607.084 531.067 607.846 531.11C609.603 531.199 613.744 528.929 612.319 531.753C612.131 532.114 607.368 534.872 608.449 536.048C608.889 536.524 610.36 538.943 611.088 539.406C611.816 539.87 613.003 538.449 613.097 538.454C616.218 538.949 616.59 537.744 620.073 536.737C623.544 535.736 616.485 539.992 615.95 540.856C615.419 541.718 617.879 541.954 618.648 541.904C619.417 541.853 620.102 540.844 620.604 540.918C623.923 541.46 617.722 543.984 617.034 545.323C615.4 548.486 621.264 546.297 622.636 547.312C623.007 547.586 621.649 548.048 621.749 548.442C622.162 549.99 624.252 549.709 623.728 552.113C623.646 552.51 621.334 555.696 624.092 554.996C624.489 554.894 625.567 553.758 626.209 554.122C627.169 554.664 628.4 555.954 628.537 557.104C628.637 557.953 626.053 558.575 627.231 558.963C627.756 559.134 628.558 557.671 629.441 558.059C630.319 558.44 631.38 560.204 631.77 560.903C632.154 561.595 630.32 562.262 630.247 562.385C629.839 563.108 629.884 564.873 629.957 564.983C633.362 570.706 639.396 574.189 642.012 580.289C642.219 580.765 640.342 581.552 640.356 581.636C640.586 583.566 644.35 579.541 646.513 579.619C642.98 581.65 643.99 581.865 644.268 583.139C644.399 583.755 642.895 584.326 642.787 584.458C641.231 586.477 644.168 585.334 644.786 585.128C647.06 584.368 645.086 586.394 646.614 585.9C648.134 585.415 649.577 583.412 650.191 584.44C649.137 585.501 645.443 586.784 645.404 587.879C645.248 592.004 651.122 595.748 652.833 597.908C654.527 600.041 654.744 600.9 656.045 601.998C658.374 603.948 655.414 604.537 655.246 606.725C655.075 608.91 660.54 604.527 661.946 603.959C663.349 603.387 662.183 604.426 663.044 604.259C663.906 604.091 664.42 602.989 665.064 603.445C665.275 603.596 665.285 604.031 665.158 604.583C664.918 605.735 664.114 607.37 663.312 608.068C660.78 610.272 657.344 611.316 659.403 612.339C659.523 612.396 660.892 611.132 661.274 611.401C664.232 613.537 666.159 616.539 668.969 618.786C669.357 619.092 670.885 617.687 671.13 617.854C673.687 619.576 670.234 620.491 667.774 623.794C671.938 620.88 675.052 620.039 676.184 621.874C676.863 622.973 674.847 623.916 673.931 625.426C673.654 625.88 675.421 625.877 674.609 626.549C671.96 628.755 668.236 629.945 670.684 631.099C670.796 631.147 672.24 629.928 672.51 630.162C674.258 631.666 671.325 633.701 672.122 635.908C672.737 637.62 676.298 639.412 677.623 640.997C682.528 638.093 682.391 640.462 679.393 643.131C680.216 644.236 680.748 645.611 681.86 646.462C682.241 646.755 683.529 645.684 683.712 645.644C686.562 644.994 683.545 647.424 683.56 647.752C683.881 651.266 687.636 652.028 686.657 656.09C686.621 656.233 683.246 658.311 686.161 657.606C686.361 657.554 687.454 655.813 688.261 656.979C689.046 658.105 692.246 659.512 691.565 662.096C691.407 662.727 689.144 665.292 691.826 664.971C692.188 664.923 693.118 664.257 693.764 664.122C695.825 663.701 692.461 665.894 695.791 664.906C699.127 663.931 702.044 663.977 700.94 666.897C700.911 666.987 698.335 668.898 698.674 669.43C699.22 670.284 700.454 671.208 700.923 672.149C701.15 672.606 699.253 673.23 699.262 673.325C699.855 676.843 702.506 678.152 704.808 681.012C705.223 681.514 703.701 684.466 706.162 684.647C708.87 684.875 716.871 679.234 716.275 683.237C716.048 684.868 705.707 691.645 712.465 691.039C712.999 695.801 717.745 698.297 717.567 703.401C717.561 703.631 714.699 705.619 714.934 706.033C715.29 706.648 716.909 706.352 717.216 706.787C718.528 708.572 718.042 710.897 719.045 712.713C719.421 713.4 720.836 712.498 721.285 713.325C721.737 714.164 719.969 715.581 721.422 716.338C722.52 716.892 727.018 716.119 727.981 717.108C723.932 718.815 724.337 719.565 723.847 721.457C723.749 721.818 722.211 722.089 722.091 722.289C721.573 723.114 722.945 723.135 722.347 723.953C722.204 724.151 720.812 724.71 720.616 724.902C718.895 726.555 722.59 726.734 723.231 726.761C725.67 726.875 724.018 728.011 725.115 728.413C726.211 728.812 726.823 727.346 727.643 727.992C729.338 729.323 729.962 731.653 730.685 733.39C730.967 734.091 728.91 734.309 728.907 734.426C728.975 736.059 731.516 736.79 728.071 738.979C738.123 736.431 727.454 740.195 730.154 741.569C730.37 741.676 735.029 740.215 735.471 739.336C735.911 738.455 734.129 738.024 734.854 736.762C735.025 736.465 738.871 733.687 739.069 733.424C740.624 731.395 733.724 733.752 733.324 733.825C728.993 734.572 733.06 731.394 733.234 730.892C734.032 728.588 732.506 727.462 732.978 725.593C733.277 724.37 737.69 722.548 737.26 721.844C735.817 719.477 729.293 721.094 733.695 716.561C734.63 715.587 739.676 714.142 735.132 713.859C734.846 713.842 730.817 713.904 732.69 712.222C732.926 712.011 734.333 711.433 734.398 711.255C734.804 710.076 733.444 709.963 733.58 708.787C733.708 707.592 734.038 706.154 733.096 705.266C732.533 704.734 729.566 705.01 728.801 704.99C726.597 704.927 729.192 702.684 726.737 703.113C724.272 703.549 721.356 706.091 719.295 705.31C722.886 703.661 726.543 701.904 730.139 700.212C728.637 697.161 726.068 694.596 724.788 691.44C724.633 691.046 726.741 690.54 726.622 690.093C726.104 688.189 724.025 687.335 723.705 685.274C723.452 683.649 724.756 681.185 724.544 679.466C720.039 680.546 720.377 677.764 719.223 676.385C718.822 675.902 717.76 676.48 717.213 676.267C715.17 675.45 719.09 674.351 719.449 673.668C720.983 670.757 712.85 674.712 712.016 672.596C711.963 672.472 715.596 668.999 715.768 668.679C716.922 666.651 714.182 669.264 713.5 668.722C712.258 667.742 710.74 667.321 711.216 665.193C711.358 664.566 713.459 662.109 710.949 662.336C710.62 662.366 709.246 663.175 709.115 663.128C706.865 662.209 711.257 659.808 712.258 658.085C713.256 656.359 709.432 656.547 708.396 656.727C705.712 657.181 707.747 657.841 707.546 658.002C705.16 659.917 705.052 658.625 704.39 657.937C700.01 660.157 699.661 658.898 703.72 657.214C704.165 657.032 704.105 657.882 704.39 657.937C708.23 654.915 708.12 653.42 703.431 654.229C701.234 654.609 699.411 656.397 699.139 654.035C699.012 652.964 702.149 651.654 702.537 650.451C703.428 647.716 699.383 646.936 698.806 644.898C698.601 644.167 700.567 643.886 700.482 643.354C700.259 641.936 698.461 641.576 698.398 640.026C698.395 639.884 700.23 639.194 700.039 638.807C698.633 635.88 696.169 634.079 694.451 631.182C693.638 629.81 693.092 626.752 692.039 625.382C690.295 623.119 685.99 621.374 685.337 618.942C684.893 617.341 686.735 616.649 687.514 615.378C689.025 612.917 683.855 613.208 683.079 613.295C683.054 613.299 683.391 614.747 682.15 614.612C680.148 615.303 683.079 613.313 683.079 613.295C682.572 613.34 680.787 611.23 680.814 610.56C680.833 610.2 682.49 609.394 682.47 609.223C681.928 605.153 680.417 601.775 677.688 598.971C677.622 598.933 675.925 600.093 675.79 599.991C675.263 599.608 674.983 599.141 674.859 598.616C674.554 597.256 675.367 595.479 675.603 593.796C675.926 591.483 674.739 590.516 671.175 591.457C670.824 590.05 668.501 589.266 667.103 588.812C665.711 588.366 669.016 586.115 669.031 585.99C669.534 582.024 666.65 581.728 664.664 579.239C663.716 578.063 662.571 575.161 662.075 573.56C661.687 572.289 660.481 572.134 660.349 570.807C660.33 570.628 661.92 569.813 661.951 569.735C663.035 567.469 659.705 570.34 658.902 570.524C655.981 571.194 654.382 571.482 654.579 569.316C654.622 568.816 659.286 564.479 659.216 563.688C659.111 562.659 657.406 564.16 657.343 563.05C657.335 562.956 658.513 562.226 658.138 561.753C656.426 559.562 654.046 557.338 652.628 554.872C652.426 554.533 654.548 553.772 654.287 553.262C653.064 550.874 651.374 548.399 649.09 546.755C648.525 546.359 647.45 547.53 646.991 547.661C644.208 548.444 646.923 545.248 646.878 545.037C645.895 539.96 640.84 538.843 639.632 533.813C639.573 533.535 642.057 529.461 638.459 530.702C638.22 530.785 634.552 532.073 636.287 530.007C636.396 529.877 638.33 529.283 637.631 528.575C636.933 527.867 637.16 525.838 634.633 525.875C633.835 525.885 630.129 527.101 631.941 524.385C632.072 524.201 636.668 518.824 632.359 520.794C631.651 521.121 627.566 523.933 628.866 521.279C629.12 520.767 630.333 520.6 630.493 519.585C630.744 518.026 628.784 517.458 629.838 515.038C630.026 514.614 632.25 511.869 629.641 512.549C629.232 512.655 627.99 513.779 627.585 513.499C625.643 512.162 625.34 509.686 623.181 508.491C622.419 508.066 620.403 509.868 619.36 509.588C618.317 509.308 616.843 508.326 617.396 506.943C617.949 505.559 622.021 503.987 621.603 502.734C619.813 497.331 614.686 494.115 611.359 489.761C610.864 489.113 612.509 488.832 611.869 487.816C609.506 484.047 606.469 476.896 601.628 475.48C597.75 474.344 598.265 478.683 596.074 477.3C595.018 476.625 598.466 472.86 598.445 472.546C598.285 469.449 595.425 469.121 594.643 466.737C594.482 466.244 596.425 465.535 596.269 465.128C595.754 463.73 594.148 462.941 593.524 461.713C593.246 461.156 594.585 460.397 594.17 459.991C593.193 459.007 591.986 458.364 590.05 458.058C589.873 458.03 588.742 459.772 588.121 458.972C587.12 457.673 584.808 456.772 584.971 454.383C585.024 453.67 587.928 451.702 585.25 452.059C584.69 452.132 581.37 454.744 583.617 451.561C583.989 451.03 586.76 446.349 583.49 447.154C582.629 447.365 579.334 448.642 579.409 447.781C579.43 447.657 581.198 446.911 581.04 446.345C580.456 444.373 579.131 442.761 578.507 440.775C578.342 440.24 580.405 439.815 580.107 439.052C579.29 436.954 577.342 434.946 575.628 433.492C574.993 432.958 573.96 434.317 573.782 434.367C570.89 435.19 573.782 432.577 573.795 432.194C573.839 429.845 571.527 429.658 570.936 427.923C570.77 427.447 572.489 426.706 572.57 426.534C573.337 424.803 571.016 427.272 570.358 426.946C568.504 426.041 567.511 424.304 566.691 422.668C566.392 422.065 568.58 421.494 568.291 420.967C566.623 417.837 564.413 414.927 561.505 412.724C560.954 412.312 559.822 413.571 559.435 413.668C556.738 414.365 558.938 411.225 559.044 410.773C559.538 408.722 558.025 409.079 557.545 407.885C555.218 402.033 550.159 396.276 546.404 391.796C541.523 385.956 536.923 381.961 533.213 375.774C532.975 375.381 535.043 374.536 534.861 374.182C532.429 369.663 528.892 365.977 526.542 361.397C526.345 361.023 528.399 360.359 528.141 359.719C527.624 358.399 526.545 357.012 525.21 356.226C524.563 355.84 523.608 357.598 522.986 357.189C521.534 356.239 520.454 354.914 519.806 353.371C519.534 352.712 521.878 352.39 521.388 351.627C518.083 346.396 514.969 341.173 509.183 337.553C508.786 337.305 505.015 339.418 505.184 338.2C506.134 337.47 507.298 336.682 508.336 335.938C503.842 328.117 497.591 321.597 492.315 314.271C492.093 313.962 494.349 313.22 493.929 312.614C491.499 309.111 489.692 305.339 485.359 303.013C484.932 302.78 481.741 305.226 481.524 303.83C481.488 303.581 480.85 301.695 481.29 300.794C481.36 300.664 483.106 299.897 482.802 299.356C481.012 296.227 478.535 293.355 475.566 291.035C475.084 290.663 473.783 292.297 473.426 292.041C470.902 290.222 470.361 286.738 467.289 285.449C465.227 284.591 462.768 287.107 459.403 288.199C458.928 288.353 458.212 287.438 456.547 288.502C452.357 291.175 448.181 294.704 443.678 297.497C442.709 298.1 442.848 296.126 441.09 298.438C440.974 298.595 440.853 300.04 440.237 300.796C439.812 301.319 437.956 302.164 437.495 302.956C437.034 303.747 438.669 303.155 438.233 304.242C437.788 305.336 435.739 306.387 436.25 307.616ZM660.836 586.759C658.66 586.901 664.536 583.041 663.704 584.88C663.657 584.974 660.945 586.755 660.836 586.759ZM721.256 696.848C717.869 696.899 721.603 694.119 724.19 694.008C726.776 693.903 722.284 696.837 721.256 696.848ZM724.891 710.694C722.026 710.2 731.089 706.044 729.908 708.417C729.843 708.554 725.058 710.723 724.891 710.694ZM461.204 292.554C461.119 292.595 460.574 291.958 460.64 291.889C462.234 290.265 463.321 291.539 461.204 292.554ZM727.877 724.558C726.443 724.592 727.366 722.691 729.152 722.651C730.592 722.623 729.663 724.521 727.877 724.558ZM625.537 545.478C625.44 545.522 625.036 545.073 625.539 544.761C627.16 543.755 627.161 544.745 625.537 545.478ZM736.008 746.725C734.472 743.576 726.014 744.406 728.175 747.643C728.566 748.23 730.142 745.362 731.136 745.929C732.951 746.97 728.449 749.724 731.608 750.318C732.185 750.423 736.113 746.899 736.017 746.716C736.014 746.719 736.011 746.722 736.008 746.725ZM653.367 590.739C653.278 590.772 652.77 590.127 652.837 590.062C654.492 588.501 655.518 589.8 653.367 590.739ZM602.815 518.707C602.625 518.778 601.411 517.274 601.528 517.121C604.021 514.273 606.486 517.311 602.815 518.707ZM677.771 640.949C676.265 642.827 676.586 643.912 679.388 643.129C678.809 642.424 678.327 641.633 677.771 640.949Z" fill="#FAEDCD"/>
<path d="M429.282 415.492C430.067 417.613 432.274 419.537 434.276 420.763C434.901 421.149 435.706 420.138 436.183 420.372C437.114 420.829 437.122 421.88 438.122 422.275C438.458 422.402 439.835 420.939 440.151 421.099C441.871 421.984 442.425 423.601 443.792 424.769C450.528 430.524 456.097 436.941 461.933 443.475C463.856 445.632 467.352 447.413 468.454 450.279C468.582 450.615 467.056 451.461 466.979 451.598C465.811 453.714 468.446 451.39 469.218 451.665C472.271 452.763 474.144 455.091 475.106 457.572C475.511 458.631 472.077 459.747 474.289 459.516C474.44 459.503 475.77 458.203 476.105 458.332C476.862 458.629 477.351 459.872 477.777 460.216C478.607 460.874 478.691 461.021 479.27 461.792C480.073 462.834 481.731 463.576 482.216 464.967C482.315 465.268 480.55 466.042 480.569 466.619C480.59 467.197 481.461 468.139 482.072 468.229C482.683 468.319 483.782 467.307 484.102 467.171C486.797 466.01 484.427 469.521 484.457 469.732C485.107 473.515 488.669 474.612 490.546 477.257C491.967 479.267 492.886 481.848 494.324 483.695C496.046 485.898 498.246 487.234 499.669 489.55C499.821 489.793 497.817 490.799 497.999 491.099C499.93 494.277 502.251 497.149 505.597 499.309C505.934 499.524 507.253 498.015 507.685 498.163C510.299 499.101 515.507 499.838 509.335 505.8C510.487 506.869 511.833 508.2 514.019 508.349C515.427 508.446 516.674 506.528 516.555 507.939C516.53 508.256 514.824 509.055 514.901 509.45C515.23 511.111 516.692 512.156 516.776 513.96C516.79 514.33 515.374 515.209 515.179 515.452C513.606 517.442 517.607 516.174 518 516.229C520.956 516.679 521.102 518.395 522.232 519.938C522.495 520.296 520.357 521.133 520.544 521.523C521.538 523.528 522.989 525.298 525.034 526.526C525.493 526.796 526.812 525.353 527.112 525.427C528.414 525.766 525.576 527.984 526.766 528.348C527.013 528.427 528.293 527.411 528.462 527.341C531.111 526.238 528.113 528.906 528.125 529.08C528.208 531.329 532.33 529.996 532.881 531.851C532.944 532.075 530.96 532.825 531.239 533.383C533.089 537.113 536.001 540.405 539.65 542.874C540.215 543.259 541.247 542.019 541.428 541.945C544.268 540.821 541.185 543.402 541.175 543.657C541.187 545.618 544.823 545.023 541.482 548.593C546.703 553.427 548.263 560.631 555.582 564.035C555.671 564.081 557.234 562.873 557.405 562.97C559.48 564.126 556.697 565.461 554.316 568.664C553.718 569.468 558.085 567.894 558.414 567.793C559.624 567.415 561.887 565.522 562.148 565.49C563.532 565.347 560.336 567.591 558.262 569.418C557.229 570.329 556.474 571.137 556.705 571.495C556.74 571.52 558.145 570.409 558.353 570.403C559.002 570.381 558.587 571.044 559.28 570.986C560.878 570.842 564.978 568.513 563.297 570.96C563.076 571.274 558.339 574.068 559.175 574.885C559.51 575.205 560.523 576.955 561.127 577.238C561.731 577.521 563.013 576.239 563.099 576.231C565.892 576.249 566.397 575.24 569.729 574.014C573.05 572.797 565.997 577.057 565.39 577.814C564.785 578.569 567.012 578.467 567.727 578.34C568.442 578.21 569.206 577.316 569.658 577.318C572.625 577.352 566.593 580.116 565.776 581.268C563.839 583.988 569.517 581.534 570.638 582.185C570.941 582.361 569.63 582.892 569.669 583.195C569.835 584.387 571.802 583.93 570.991 585.919C570.86 586.245 568.291 589.056 570.918 588.17C571.296 588.041 572.444 587.008 572.982 587.221C573.786 587.538 574.739 588.43 574.708 589.338C574.685 590.009 572.222 590.802 573.253 590.98C573.712 591.058 574.65 589.791 575.41 590.003C576.169 590.213 576.9 591.505 577.156 592.009C577.41 592.514 575.633 593.26 575.548 593.367C575.07 593.987 574.864 595.391 574.917 595.471C577.264 599.677 582.323 601.763 583.874 606.325C583.997 606.68 582.159 607.52 582.16 607.585C582.1 609.097 586.131 605.464 588.114 605.283C584.574 607.3 585.475 607.358 585.556 608.347C585.592 608.826 584.125 609.449 584.008 609.567C582.295 611.356 585.165 610.122 585.765 609.89C587.971 609.037 585.861 610.859 587.338 610.294C588.805 609.735 590.418 607.981 590.836 608.725C589.716 609.687 586.134 611.128 585.943 612.001C585.212 615.289 590.125 617.635 591.401 619.154C592.678 620.672 592.772 621.352 593.811 622.058C595.686 623.333 592.874 624.139 592.422 625.901C591.97 627.665 597.617 623.561 598.995 622.952C600.37 622.341 599.152 623.301 599.973 623.073C600.793 622.845 601.415 621.905 601.952 622.202C602.488 622.499 600.947 625.104 599.7 626.065C597.059 628.1 593.741 629.32 595.504 629.894C595.607 629.926 597.045 628.767 597.361 628.937C599.824 630.322 601.191 632.456 603.508 633.931C603.829 634.132 605.427 632.838 605.634 632.944C607.791 634.038 604.467 635.155 601.752 638.049C605.992 635.26 608.976 634.213 609.79 635.536C610.279 636.33 608.289 637.314 607.249 638.623C606.934 639.017 608.579 638.815 607.741 639.445C605.004 641.507 601.405 642.902 603.518 643.506C603.616 643.529 605.111 642.395 605.33 642.546C606.755 643.517 603.779 645.481 604.257 647.152C604.631 648.463 607.689 649.396 608.752 650.522C613.663 647.627 613.251 649.516 610.142 651.988C610.772 652.752 611.109 653.775 612.053 654.321C612.376 654.51 613.697 653.498 613.872 653.444C616.608 652.586 613.512 654.871 613.488 655.128C613.371 657.835 616.813 658.001 615.449 661.307C615.399 661.425 612.03 663.509 614.826 662.572C615.018 662.505 616.22 660.982 616.852 661.802C617.485 662.62 620.291 663.244 619.409 665.394C619.198 665.913 616.843 668.268 619.37 667.626C619.712 667.538 620.647 666.885 621.262 666.687C623.226 666.064 619.871 668.26 623.076 667.015C626.281 665.77 629.022 665.433 627.7 667.848C627.663 667.921 625.078 669.791 625.346 670.159C625.776 670.744 626.858 671.308 627.214 671.974C627.383 672.293 625.558 673.068 625.557 673.14C625.801 675.796 628.18 676.427 630.128 678.314C630.489 678.658 628.829 681.175 631.131 680.93C633.653 680.666 641.551 674.99 640.698 678.158C640.361 679.433 630.271 686.509 636.634 684.851C636.876 688.478 641.198 689.519 640.852 693.487C640.837 693.665 638.083 695.752 638.294 696.031C638.613 696.443 640.146 695.905 640.419 696.174C641.596 697.282 641.094 699.184 642.009 700.376C642.353 700.831 643.699 699.848 644.109 700.39C644.518 700.932 642.838 702.39 644.202 702.67C645.239 702.878 649.46 701.299 650.36 701.843C646.546 704.024 646.933 704.527 646.468 706.068C646.376 706.365 644.93 706.913 644.818 707.092C644.333 707.837 645.625 707.551 645.069 708.312C644.936 708.496 643.63 709.234 643.447 709.426C641.844 711.085 645.322 710.387 645.926 710.264C648.225 709.8 646.687 711.048 647.723 711.099C648.759 711.15 649.314 709.895 650.094 710.195C651.708 710.819 652.334 712.433 653.057 713.582C653.337 714.045 651.409 714.702 651.409 714.791C651.512 716.014 653.922 715.959 650.745 718.448C660.122 714.086 650.201 719.525 652.783 719.911C652.99 719.939 657.324 717.696 657.713 716.925C658.101 716.154 656.413 716.259 657.059 715.129C657.21 714.862 660.754 711.836 660.934 711.592C662.347 709.687 655.921 713.128 655.547 713.279C651.493 714.882 655.245 711.505 655.399 711.083C656.104 709.153 654.654 708.662 655.077 707.141C655.347 706.151 659.476 703.754 659.067 703.323C657.71 701.889 651.575 704.565 655.729 700.168C656.614 699.228 661.353 697.01 657.096 697.809C656.828 697.86 653.051 698.8 654.831 697.12C655.055 696.908 656.382 696.165 656.445 696.017C656.843 695.037 655.571 695.246 655.725 694.336C655.879 693.425 656.209 692.247 655.357 691.784C654.846 691.504 652.065 692.339 651.344 692.472C649.275 692.869 651.779 690.638 649.467 691.464C647.143 692.293 644.324 694.815 642.418 694.632C645.841 692.659 649.33 690.589 652.76 688.583C651.461 686.558 649.187 685.126 648.155 682.942C648.03 682.669 650.03 681.891 649.944 681.572C649.573 680.228 647.674 679.945 647.509 678.427C647.388 677.249 648.759 675.105 648.692 673.837C644.416 675.461 644.921 673.239 643.958 672.378C643.622 672.076 642.586 672.697 642.093 672.626C640.258 672.346 643.999 670.842 644.389 670.257C646.054 667.754 638.134 672.12 637.541 670.625C637.507 670.547 641.186 667.266 641.376 666.994C642.63 665.239 639.844 667.694 639.255 667.378C638.178 666.803 636.823 666.749 637.448 664.997C637.636 664.482 639.825 662.257 637.467 662.813C637.157 662.885 635.799 663.719 635.682 663.702C633.679 663.332 638.008 660.818 639.106 659.322C640.204 657.827 636.626 658.533 635.644 658.823C633.101 659.568 634.924 659.782 634.722 659.937C632.306 661.773 632.334 660.781 631.792 660.346C627.487 662.705 627.293 661.776 631.248 659.886C631.68 659.681 631.533 660.345 631.792 660.346C635.689 657.46 635.728 656.287 631.278 657.575C629.192 658.179 627.302 659.825 627.304 658.024C627.303 657.207 630.37 655.759 630.857 654.758C631.967 652.471 628.307 652.434 628 650.908C627.888 650.354 629.752 649.881 629.73 649.471C629.68 648.379 628.05 648.333 628.177 647.132C628.19 647.022 629.975 646.239 629.844 645.964C628.886 643.859 626.808 642.749 625.57 640.69C624.972 639.694 624.85 637.363 624.058 636.433C622.694 634.812 618.968 634.025 618.657 632.145C618.446 630.921 620.245 630.159 621.13 629.06C622.846 626.931 618.035 627.793 617.307 627.957C617.284 627.963 617.397 629.055 616.27 629.101C614.328 629.887 617.305 627.971 617.307 627.957C616.836 628.061 615.443 626.565 615.559 626.035C615.624 625.746 617.265 624.916 617.268 624.783C617.321 621.646 616.353 619.102 614.227 617.211C614.17 617.189 612.444 618.302 612.334 618.237C610.747 617.359 612.388 615.209 613 613.329C613.611 611.449 612.656 610.826 609.24 611.983C609.117 610.918 607.059 610.519 605.833 610.316C604.606 610.113 607.971 607.954 608.002 607.852C609.024 604.652 606.4 604.735 604.904 602.955C604.188 602.115 603.556 599.963 603.311 598.723C603.123 597.738 602.031 597.748 602.092 596.701C602.1 596.56 603.679 595.732 603.719 595.666C605.032 593.733 601.564 596.399 600.798 596.636C598.013 597.498 596.499 597.907 596.988 596.163C597.099 595.763 601.999 591.775 602.04 591.142C602.082 590.325 600.304 591.718 600.397 590.833C600.404 590.758 601.589 590.042 601.309 589.703C600.022 588.121 598.172 586.663 597.183 584.809C597.043 584.558 599.104 583.711 598.932 583.329C598.124 581.535 596.921 579.761 595.043 578.699C594.575 578.441 593.427 579.506 592.986 579.662C590.314 580.602 593.247 577.722 593.234 577.557C593.019 573.585 588.522 573.269 588.089 569.359C588.072 569.143 590.906 565.578 587.435 567C587.203 567.093 583.666 568.57 585.531 566.692C585.648 566.575 587.507 565.874 586.956 565.379C586.407 564.886 586.883 563.22 584.555 563.547C583.82 563.648 580.255 565.067 582.282 562.665C582.427 562.503 587.361 557.622 583.147 559.731C582.454 560.079 578.333 562.837 579.873 560.534C580.173 560.09 581.31 559.812 581.589 558.971C582.022 557.678 580.294 557.451 581.576 555.369C581.724 555.133 582.774 554.016 582.835 553.483C582.869 553.19 582.603 553.075 581.722 553.384C581.333 553.519 580.045 554.576 579.711 554.401C578.114 553.574 578.147 551.595 576.318 550.888C575.672 550.636 573.589 552.34 572.67 552.243C571.75 552.146 570.528 551.539 571.215 550.357C571.902 549.173 575.836 547.395 575.616 546.438C574.656 542.274 570.381 540.342 567.87 537.229C567.497 536.767 569.04 536.33 568.58 535.587C566.892 532.844 564.986 527.43 560.739 526.933C557.338 526.533 557.268 529.966 555.439 529.144C554.562 528.745 558.173 525.233 558.19 524.98C558.419 522.486 555.844 522.601 555.42 520.777C555.333 520.4 557.195 519.564 557.102 519.255C556.799 518.189 555.44 517.784 555.011 516.864C554.823 516.448 556.138 515.653 555.807 515.377C555.03 514.708 554.003 514.348 552.27 514.362C552.113 514.363 550.87 515.93 550.399 515.365C549.64 514.448 547.642 514.041 548.081 512.089C548.216 511.506 551.1 509.509 548.61 510.163C548.089 510.298 544.749 512.874 547.176 509.979C547.578 509.496 550.661 505.315 547.581 506.421C546.77 506.712 543.613 508.204 543.784 507.497C543.817 507.394 545.519 506.542 545.442 506.106C545.143 504.589 544.131 503.477 543.789 501.944C543.7 501.532 545.634 500.9 545.45 500.322C544.948 498.729 543.402 497.369 542.012 496.437C541.496 496.095 540.396 497.342 540.228 497.408C537.496 498.487 540.439 495.959 540.496 495.647C540.81 493.738 538.717 493.904 538.378 492.578C538.281 492.215 539.934 491.369 540.028 491.217C540.926 489.702 538.526 492.037 537.963 491.867C536.378 491.397 535.675 490.131 535.119 488.924C534.916 488.48 536.974 487.7 536.772 487.315C535.609 485.01 533.922 482.958 531.527 481.594C531.073 481.34 529.898 482.526 529.535 482.661C527.001 483.621 529.364 480.756 529.512 480.374C530.192 478.634 528.773 479.142 528.47 478.241C527.01 473.822 523.051 469.891 520.135 466.811C516.345 462.793 512.61 460.245 509.911 455.768C509.738 455.485 511.71 454.486 511.583 454.226C509.868 450.919 507.06 448.466 505.419 445.096C505.281 444.822 507.219 443.969 507.054 443.488C506.728 442.493 505.9 441.533 504.774 441.1C504.228 440.886 503.169 442.459 502.649 442.223C501.435 441.676 500.593 440.758 500.172 439.603C499.996 439.109 502.16 438.489 501.797 437.943C499.362 434.199 497.094 430.43 492.231 428.384C491.898 428.244 488.248 430.546 488.534 429.53C489.473 428.79 490.614 427.969 491.637 427.204C488.393 421.539 483.419 417.215 479.415 412.087C479.246 411.871 481.372 410.915 481.055 410.489C479.224 408.022 477.984 405.236 474.303 404.027C473.94 403.905 470.786 406.393 470.738 405.293C470.732 405.097 470.353 403.664 470.848 402.863C470.926 402.746 472.59 401.849 472.372 401.457C471.081 399.194 469.14 397.25 466.695 395.833C466.297 395.606 464.944 397.138 464.647 396.987C462.551 395.905 462.431 393.16 459.782 392.597C458.004 392.224 455.507 394.656 452.34 396.073C451.893 396.272 451.341 395.642 449.718 396.768C445.635 399.599 441.473 403.124 437.093 406.102C436.15 406.745 436.487 405.119 434.646 407.274C434.524 407.42 434.261 408.613 433.622 409.324C433.181 409.816 431.409 410.795 430.906 411.51C430.404 412.226 431.949 411.487 431.439 412.439C430.919 413.397 428.949 414.574 429.282 415.492ZM600.343 609.399C598.316 609.756 604.271 606.021 603.25 607.582C603.194 607.662 600.443 609.383 600.343 609.399ZM644.575 687.742C641.398 688.42 645.042 685.602 647.464 685.022C649.884 684.444 645.539 687.538 644.575 687.742ZM647.538 697.621C644.852 697.83 653.453 692.791 652.292 694.837C652.227 694.955 647.695 697.609 647.538 697.621ZM453.51 399.326C453.428 399.373 453.002 398.941 453.068 398.875C454.686 397.305 455.537 398.169 453.51 399.326ZM650.274 707.529C648.924 707.88 649.784 706.23 651.461 705.794C652.811 705.443 651.952 707.094 650.274 707.529ZM573.553 580.375C573.458 580.421 573.148 580.109 573.653 579.799C575.279 578.802 575.145 579.596 573.553 580.375ZM658.458 722.38C656.907 720.376 648.982 723.073 651.124 724.999C651.512 725.348 652.895 722.788 653.85 722.974C655.592 723.318 651.454 726.509 654.445 726.182C654.992 726.12 658.563 722.485 658.466 722.37C658.464 722.374 658.461 722.377 658.458 722.38ZM592.899 613.404C592.812 613.44 592.428 612.976 592.499 612.916C594.24 611.484 595.016 612.419 592.899 613.404ZM556.322 561.655C556.139 561.736 555.229 560.686 555.357 560.548C558.014 557.945 559.866 560.068 556.322 561.655ZM608.895 650.466C607.281 652.155 607.441 652.957 610.138 651.987C609.685 651.506 609.34 650.956 608.895 650.466Z" fill="#FAEDCD"/>
<path d="M526.592 573.072C526.414 574.358 525.002 575.188 523.604 575.583C523.168 575.708 522.267 574.829 521.921 574.883C521.246 574.988 521.475 575.711 520.728 575.758C520.476 575.77 518.995 574.451 518.767 574.49C517.527 574.712 517.429 575.703 516.549 576.2C512.21 578.65 508.993 581.819 505.572 585.002C504.445 586.052 501.916 586.489 501.632 588.213C501.601 588.415 503.067 589.344 503.162 589.456C504.611 591.18 501.887 588.98 501.303 588.995C498.99 589.06 497.941 590.235 497.685 591.726C497.581 592.363 500.706 593.914 498.802 593.251C498.672 593.207 497.269 592.009 497.017 592.022C496.449 592.054 496.316 592.799 496.035 592.938C495.485 593.202 495.448 593.285 495.133 593.683C494.691 594.219 493.467 594.35 493.368 595.197C493.351 595.381 495.002 596.316 495.113 596.71C495.224 597.103 494.701 597.552 494.208 597.475C493.716 597.397 492.572 596.45 492.273 596.283C489.758 594.869 492.519 597.826 492.54 597.964C492.829 600.419 490.083 600.355 489.087 601.744C488.335 602.801 488.129 604.361 487.324 605.301C486.36 606.415 484.801 606.828 484.109 608.089C484.034 608.22 485.935 609.374 485.847 609.538C484.913 611.273 483.583 612.705 481.231 613.41C480.993 613.48 479.561 612.138 479.229 612.139C477.234 612.173 473.011 611.463 479.476 616.987C478.735 617.451 477.884 618.048 476.075 617.639C474.91 617.376 473.452 615.77 473.853 616.764C473.941 616.986 475.547 617.934 475.565 618.185C475.641 619.245 474.631 619.616 474.94 620.831C475.006 621.081 476.384 622.015 476.6 622.227C478.344 623.959 474.706 622.149 474.386 622.095C471.99 621.705 472.225 622.845 471.596 623.632C471.449 623.814 473.426 624.892 473.35 625.114C472.931 626.248 472.074 627.115 470.603 627.466C470.271 627.541 468.859 626.243 468.621 626.222C467.592 626.144 470.447 628.333 469.517 628.298C469.325 628.294 468.035 627.296 467.878 627.208C465.413 625.824 468.495 628.359 468.52 628.474C468.912 629.99 465.158 628.095 465.073 629.226C465.066 629.364 466.896 630.35 466.775 630.664C465.974 632.763 464.177 634.306 461.586 635.1C461.186 635.226 460.063 634.132 459.895 634.039C457.266 632.587 460.393 635.087 460.452 635.264C460.836 636.594 457.637 635.306 461.178 638.543C457.719 640.554 457.801 645.06 452.233 645.543C452.166 645.552 450.606 644.348 450.48 644.371C448.939 644.635 451.559 646.229 454.194 648.986C454.855 649.679 450.842 647.528 450.543 647.377C449.442 646.82 447.158 644.977 446.93 644.89C445.125 644.228 453.084 649.751 452.698 650.303C452.672 650.311 451.267 649.21 451.089 649.154C450.533 648.977 451.012 649.528 450.411 649.314C449.024 648.817 445.097 646.218 446.988 648.289C447.235 648.556 451.792 651.629 451.233 651.971C451.007 652.104 450.471 653.028 450.008 653.066C449.546 653.104 448.216 651.917 448.141 651.89C445.765 651.198 445.147 650.39 442.081 648.723C439.025 647.064 445.825 651.715 446.482 652.378C447.137 653.04 445.219 652.408 444.587 652.14C443.954 651.872 443.138 651.077 442.753 650.963C440.231 650.231 445.882 653.621 446.79 654.603C448.942 656.924 443.649 653.831 442.811 653.982C442.585 654.024 443.8 654.714 443.822 654.908C443.897 655.667 442.137 654.857 443.189 656.399C443.36 656.651 446.062 659.195 443.658 657.929C443.312 657.746 442.145 656.758 441.724 656.764C441.094 656.772 440.441 657.124 440.631 657.739C440.771 658.194 443.018 659.36 442.169 659.213C441.79 659.147 440.762 658.058 440.151 658.004C439.541 657.949 439.146 658.626 439.017 658.898C438.89 659.17 440.542 660.128 440.633 660.221C441.152 660.761 441.577 661.753 441.546 661.793C440.283 664.005 436.319 664.081 435.777 666.718C435.732 666.923 437.453 667.964 437.463 668.007C437.774 669.031 433.694 665.555 431.964 664.916C435.344 667.186 434.583 666.99 434.683 667.628C434.733 667.938 436.098 668.737 436.219 668.846C437.994 670.487 435.322 668.912 434.768 668.6C432.731 667.454 434.852 669.22 433.489 668.456C432.135 667.699 430.452 666.109 430.221 666.494C431.346 667.428 434.664 669.328 434.977 669.959C436.165 672.342 432.344 672.609 431.502 673.281C430.661 673.951 430.693 674.377 429.919 674.571C428.519 674.921 431.07 676.2 431.753 677.488C432.434 678.778 426.898 674.559 425.612 673.79C424.328 673.02 425.535 673.979 424.791 673.611C424.048 673.242 423.357 672.454 422.945 672.508C422.533 672.563 424.289 674.699 425.52 675.667C428.128 677.718 431.184 679.408 429.761 679.32C429.678 679.314 428.25 678.163 428.006 678.192C426.117 678.453 425.289 679.503 423.535 679.858C423.291 679.906 421.704 678.624 421.543 678.638C419.863 678.787 422.908 680.412 425.717 683.051C421.611 680.075 418.869 678.588 418.383 679.244C418.09 679.637 419.965 680.819 421.073 681.961C421.408 682.305 419.958 681.732 420.782 682.372C423.474 684.465 426.802 686.349 425.077 686.183C424.997 686.172 423.525 685.023 423.361 685.064C422.288 685.325 425.172 687.414 425.028 688.389C424.915 689.154 422.425 688.952 421.687 689.407C416.987 686.183 417.643 687.538 420.721 690C420.299 690.334 420.171 690.917 419.443 691.022C419.194 691.059 417.892 690.038 417.733 689.956C415.234 688.656 418.27 690.99 418.332 691.167C418.861 692.981 415.912 692.166 417.613 694.704C417.675 694.795 420.916 697.07 418.351 695.702C418.174 695.607 416.895 694.283 416.477 694.652C416.059 695.02 413.731 694.673 414.832 696.321C415.096 696.719 417.503 698.898 415.216 697.798C414.906 697.648 413.995 696.969 413.431 696.674C411.634 695.738 414.881 698.08 411.912 696.402C408.943 694.724 406.517 693.767 408.039 695.706C408.082 695.765 410.613 697.685 410.439 697.854C410.158 698.123 409.309 698.201 409.105 698.542C409.008 698.705 410.711 699.703 410.722 699.751C410.929 701.422 408.962 701.202 407.568 701.914C407.308 702.043 409.14 704.135 407.105 703.358C404.877 702.509 397.143 696.679 398.375 698.981C398.865 699.906 408.723 707.235 402.941 704.449C403.295 706.758 399.703 706.286 400.623 708.968C400.663 709.088 403.381 711.185 403.241 711.311C403.028 711.495 401.612 710.736 401.417 710.84C400.566 711.251 401.299 712.626 400.69 713.161C400.462 713.366 399.139 712.367 398.866 712.612C398.595 712.858 400.284 714.254 399.142 714.075C398.273 713.935 394.355 711.788 393.657 711.905C397.316 714.336 397.058 714.563 397.704 715.691C397.83 715.909 399.174 716.648 399.299 716.794C399.838 717.409 398.669 716.881 399.273 717.524C399.417 717.679 400.67 718.505 400.859 718.678C402.514 720.182 399.379 718.809 398.833 718.57C396.76 717.662 398.295 718.88 397.401 718.64C396.508 718.401 395.826 717.437 395.195 717.427C393.888 717.41 393.597 718.297 393.15 718.855C392.979 719.084 394.762 720.016 394.776 720.074C394.879 720.845 392.77 720.18 395.933 722.632C387.071 717.34 396.577 723.475 394.389 723.051C394.213 723.016 390.08 720.425 389.619 719.821C389.158 719.217 390.647 719.725 389.905 718.82C389.731 718.607 386.166 715.707 385.97 715.5C384.44 713.886 390.582 717.81 390.932 718.006C394.718 720.111 390.915 716.929 390.715 716.613C389.797 715.17 390.983 715.229 390.376 714.125C389.986 713.408 386.015 710.758 386.304 710.584C387.264 710.001 393.022 713.365 388.721 709.396C387.805 708.548 383.334 705.85 387.165 707.492C387.407 707.596 390.84 709.207 389.03 707.639C388.801 707.442 387.531 706.606 387.453 706.492C386.955 705.746 388.094 706.219 387.819 705.582C387.544 704.946 387.074 704.087 387.744 704.009C388.146 703.96 390.694 705.243 391.342 705.521C393.203 706.329 390.68 704.205 392.819 705.358C394.968 706.517 397.811 708.914 399.439 709.301C396.157 707.101 392.803 704.821 389.509 702.598C390.328 701.614 392.08 701.285 392.64 700.128C392.706 699.982 390.848 698.94 390.873 698.754C390.988 697.972 392.595 698.291 392.504 697.34C392.427 696.599 390.906 694.827 390.768 694.014C394.731 696.221 393.948 694.63 394.651 694.322C394.895 694.214 395.89 694.898 396.307 694.983C397.855 695.29 394.377 693.303 393.948 692.815C392.117 690.727 399.663 695.71 399.945 694.888C399.962 694.846 396.264 691.707 396.057 691.477C394.698 689.989 397.494 692.347 397.956 692.297C398.8 692.209 399.966 692.538 399.15 691.22C398.907 690.832 396.664 688.784 398.794 689.781C399.073 689.912 400.38 690.823 400.479 690.844C402.156 691.138 398.014 688.326 396.83 687.049C395.647 685.772 398.855 687.195 399.75 687.649C402.069 688.82 400.523 688.472 400.723 688.628C403.102 690.483 402.922 689.823 403.324 689.682C407.42 692.388 407.442 691.828 403.724 689.526C403.317 689.275 403.548 689.751 403.324 689.682C399.499 686.74 399.284 685.957 403.336 687.998C405.235 688.955 407.129 690.545 406.844 689.361C406.716 688.825 403.836 687.05 403.257 686.261C401.938 684.459 405.097 685.417 405.122 684.496C405.131 684.161 403.446 683.35 403.399 683.085C403.271 682.38 404.673 682.786 404.374 681.961C404.345 681.885 402.679 680.891 402.748 680.745C403.243 679.616 404.861 679.444 405.601 678.418C405.958 677.923 405.692 676.418 406.227 676.015C407.145 675.31 410.228 675.791 410.193 674.632C410.176 673.881 408.503 672.897 407.562 671.935C405.738 670.071 410.024 671.924 410.677 672.227C410.698 672.237 410.777 672.929 411.756 673.26C413.557 674.298 410.681 672.237 410.677 672.227C411.099 672.421 412.057 671.804 411.87 671.422C411.767 671.214 410.218 670.227 410.193 670.138C409.634 668.052 410.048 666.628 411.563 665.941C411.608 665.941 413.277 667.137 413.361 667.124C414.581 666.963 412.813 665.103 411.973 663.695C411.133 662.289 411.851 662.128 414.978 663.801C414.905 663.127 416.605 663.408 417.623 663.599C418.641 663.789 415.389 661.466 415.345 661.39C413.928 658.995 416.193 659.743 417.172 658.956C417.643 658.586 417.815 657.322 417.81 656.563C417.801 655.96 418.739 656.252 418.506 655.539C418.475 655.443 416.979 654.477 416.933 654.423C415.474 652.793 418.906 655.476 419.603 655.834C422.138 657.138 423.506 657.807 422.784 656.517C422.619 656.221 417.729 652.285 417.584 651.852C417.404 651.297 419.17 652.69 418.935 652.076C418.917 652.024 417.777 651.238 417.957 651.086C418.781 650.368 420.103 649.883 420.62 648.9C420.695 648.769 418.784 647.669 418.862 647.458C419.234 646.473 419.943 645.601 421.354 645.378C421.707 645.327 422.879 646.335 423.284 646.553C425.734 647.872 422.71 645.191 422.691 645.084C422.155 642.488 425.931 643.433 425.58 640.924C425.555 640.783 422.48 637.672 425.699 639.512C425.914 639.634 429.199 641.527 427.262 639.793C427.141 639.685 425.428 638.741 425.804 638.55C426.181 638.359 425.465 637.121 427.506 637.932C428.15 638.186 431.45 640.043 429.274 637.918C429.121 637.772 424.002 633.248 427.985 635.729C428.64 636.138 432.665 639.033 430.92 637.097C430.581 636.723 429.562 636.249 429.165 635.613C428.552 634.636 429.977 634.92 428.488 633.199C428.224 632.896 425.71 630.622 427.984 631.829C428.341 632.019 429.636 633.053 429.887 633.019C431.085 632.863 430.676 631.524 432.091 631.507C432.59 631.499 434.687 633.167 435.45 633.331C436.212 633.494 437.131 633.39 436.318 632.422C435.505 631.453 431.822 629.274 431.822 628.685C431.821 626.122 435.063 625.875 436.569 624.388C436.792 624.168 435.4 623.493 435.64 623.104C436.521 621.668 437.044 618.467 440.53 619.163C443.322 619.719 444.079 622.064 445.458 621.951C446.118 621.893 442.352 618.635 442.285 618.46C441.585 616.711 443.783 617.412 443.766 616.276C443.762 616.041 442.019 615.024 442.034 614.837C442.07 614.186 443.135 614.238 443.306 613.716C443.379 613.479 442.106 612.622 442.328 612.515C442.845 612.248 443.637 612.25 445.101 612.676C445.234 612.715 446.607 614.078 446.887 613.807C447.337 613.366 448.939 613.566 448.163 612.133C447.928 611.704 445.08 609.655 447.315 610.695C447.782 610.912 451.136 613.463 448.486 610.913C448.046 610.488 444.574 606.906 447.401 608.393C448.145 608.785 451.118 610.553 450.826 610.031C450.776 609.952 449.164 608.967 449.137 608.689C449.07 607.726 449.688 607.21 449.654 606.245C449.642 605.985 447.88 605.096 447.913 604.745C448 603.778 449.013 603.217 449.985 602.91C450.347 602.798 451.537 603.91 451.693 603.994C454.22 605.375 451.208 602.955 451.093 602.729C450.423 601.352 452.219 601.959 452.221 601.134C452.226 600.91 450.655 599.942 450.543 599.817C449.465 598.571 451.982 600.73 452.419 600.746C453.652 600.798 453.973 600.098 454.183 599.404C454.257 599.147 452.36 598.131 452.447 597.916C452.93 596.615 453.908 595.606 455.625 595.234C455.952 595.166 457.194 596.252 457.529 596.43C459.865 597.678 457.262 595.165 457.055 594.869C456.108 593.519 457.409 594.198 457.469 593.651C457.738 590.968 460.206 589.193 461.978 587.755C464.278 585.877 466.85 584.986 468.124 582.533C468.207 582.378 466.333 581.239 466.382 581.089C467.09 579.212 468.9 578.168 469.525 576.228C469.58 576.072 467.767 575.042 467.799 574.749C467.851 574.14 468.331 573.669 469.178 573.628C469.587 573.606 470.824 574.929 471.207 574.886C472.102 574.787 472.602 574.348 472.698 573.649C472.735 573.349 470.785 572.429 470.967 572.136C472.173 570.115 473.228 568.039 476.839 567.734C477.087 567.713 480.656 570.127 480.19 569.363C479.238 568.64 478.099 567.816 477.072 567.056C478.517 563.893 481.708 562.039 483.903 559.411C483.995 559.3 482.002 558.16 482.171 557.938C483.148 556.652 483.558 555.012 486.363 555.009C486.639 555.007 489.837 557.435 489.629 556.687C489.59 556.553 489.584 555.651 488.99 554.986C488.898 554.888 487.305 553.894 487.398 553.673C487.968 552.404 489.153 551.501 490.878 551.075C491.159 551.009 492.636 552.371 492.85 552.333C494.358 552.06 493.84 550.193 495.928 550.402C497.331 550.546 499.967 552.786 502.934 554.478C503.353 554.716 503.672 554.406 505.283 555.549C509.336 558.422 513.61 561.792 517.944 564.834C518.877 565.49 518.229 564.292 520.254 566.194C520.389 566.322 520.878 567.204 521.572 567.839C522.052 568.278 523.755 569.352 524.336 569.959C524.917 570.566 523.459 569.708 524.1 570.48C524.751 571.258 526.663 572.514 526.592 573.072ZM422.181 664.439C423.981 665.211 418.238 661.159 419.378 662.465C419.44 662.533 422.092 664.402 422.181 664.439ZM396.494 704.223C399.359 705.513 395.756 702.698 393.562 701.674C391.369 700.652 395.624 703.833 396.494 704.223ZM395.452 709.895C397.821 710.744 389.557 705.171 390.884 706.818C390.959 706.912 395.314 709.846 395.452 709.895ZM502.69 556.459C502.768 556.509 503.027 556.307 502.957 556.247C501.25 554.799 500.733 555.203 502.69 556.459ZM394.62 715.642C395.849 716.226 394.843 714.923 393.314 714.196C392.084 713.612 393.09 714.916 394.62 715.642ZM439.994 652.024C440.084 652.079 440.291 651.948 439.804 651.611C438.235 650.528 438.494 651.094 439.994 652.024ZM389.836 723.181C390.869 722.279 398.205 726.101 396.647 726.793C396.365 726.919 394.75 724.894 393.948 724.766C392.484 724.537 396.602 727.687 393.944 726.695C393.458 726.513 389.762 723.223 389.828 723.173C389.83 723.176 389.833 723.178 389.836 723.181ZM429.248 669.063C429.328 669.11 429.579 668.903 429.508 668.844C427.771 667.433 427.264 667.85 429.248 669.063ZM451.147 643.75C451.319 643.851 451.889 643.366 451.754 643.241C448.995 640.823 447.832 641.798 451.147 643.75ZM421.555 689.332C423.218 690.878 423.207 691.362 420.724 690C421.039 689.805 421.249 689.535 421.555 689.332Z" fill="#FAEDCD"/>
<path d="M497.604 674.453C497.563 675.089 497.996 674.548 498.463 673.761C498.608 673.517 499.004 672.336 499.123 672.115C499.357 671.684 499.213 672.282 499.478 671.764C499.568 671.587 500.209 669.72 500.289 669.577C500.719 668.805 500.675 669.324 500.953 668.979C502.322 667.274 503.243 666.825 504.237 666.238C504.564 666.047 505.472 664.476 505.424 665.295C505.418 665.393 504.784 667.005 504.738 667.14C504.039 669.212 505.26 665.936 505.479 665.522C506.344 663.889 506.639 663.832 506.598 664.533C506.579 664.836 505.251 668.011 506.034 666.243C506.087 666.124 506.73 664.4 506.824 664.226C507.037 663.836 507.018 664.181 507.113 664.062C507.299 663.823 507.306 663.845 507.389 663.855C507.509 663.854 507.967 663.051 507.925 663.483C507.914 663.58 507.194 665.323 507.113 665.636C507.034 665.949 507.19 665.838 507.386 665.438C507.582 665.037 508.113 663.653 508.243 663.34C509.346 660.693 508.001 664.431 507.979 664.528C507.631 666.19 508.698 664.18 508.949 664.288C509.135 664.373 509.06 665.149 509.28 665.128C509.544 665.096 510.114 664.225 510.255 664.474C510.271 664.498 509.4 666.536 509.417 666.57C509.604 666.926 509.973 666.818 510.832 665.556C510.919 665.428 511.638 663.619 511.771 663.384C512.565 661.982 514.366 658.573 511.141 666.41C511.387 666.155 511.661 665.901 512.44 664.377C512.944 663.396 513.717 661.421 513.444 662.288C513.383 662.482 512.622 664.176 512.587 664.337C512.437 665.012 512.807 664.515 512.54 665.445C512.484 665.639 511.812 667.161 511.699 667.438C510.783 669.686 512.48 666.05 512.618 665.793C513.645 663.869 513.417 664.704 513.585 664.72C513.624 664.723 512.679 666.748 512.683 666.824C512.719 667.191 512.965 667.09 513.531 666.257C513.659 666.067 514.407 664.316 514.509 664.137C514.948 663.366 513.487 666.652 513.88 665.977C513.961 665.839 514.624 664.35 514.7 664.188C515.903 661.649 514.301 665.294 514.276 665.379C513.922 666.537 515.737 662.796 515.634 663.397C515.62 663.472 514.723 665.33 514.735 665.427C514.801 666.083 515.365 665.721 516.371 664.372C516.526 664.165 517.154 662.748 517.238 662.577C518.563 659.902 516.888 663.533 516.838 663.676C516.497 664.713 518.059 661.744 516.087 666.079C517.316 664.836 516.619 667.472 519.043 663.918C519.072 663.877 519.949 662.114 520.003 662.04C520.662 661.135 519.25 663.85 517.645 667.233C517.24 668.081 519.376 664.099 519.536 663.808C520.119 662.736 521.429 660.115 521.546 659.91C522.47 658.298 518.03 666.907 518.117 666.956C518.127 666.943 518.933 665.352 519.022 665.199C519.302 664.717 519.001 665.359 519.306 664.826C520.013 663.593 522.206 659.427 521.029 661.903C520.875 662.224 518.32 667.089 518.519 666.9C518.601 666.82 518.695 666.976 518.903 666.683C519.109 666.39 519.909 664.81 519.947 664.744C521.155 662.733 521.567 661.853 523.253 658.824C524.937 655.808 521.05 663.07 520.64 663.894C520.232 664.715 521.223 663.054 521.562 662.474C521.9 661.893 522.406 660.887 522.604 660.562C523.906 658.441 520.723 664.193 520.142 665.364C518.759 668.135 521.731 662.798 522.109 662.323C522.21 662.194 521.525 663.405 521.484 663.53C521.326 664.01 522.293 662.367 521.542 663.948C521.421 664.207 519.712 667.458 521.064 665.126C521.259 664.79 521.979 663.449 522.179 663.17C522.478 662.751 522.733 662.512 522.542 662.988C522.399 663.339 521.123 665.5 521.555 664.849C521.748 664.558 522.426 663.256 522.73 662.817C523.034 662.379 523.114 662.499 523.131 662.566C523.147 662.635 522.182 664.275 522.122 664.388C521.779 665.038 521.397 665.877 521.405 665.878C521.61 666.263 523.55 663.684 523.339 664.798C523.322 664.883 522.261 666.586 522.248 666.616C521.892 667.384 524.606 662.791 525.604 661.308C523.467 664.774 523.889 664.168 523.716 664.586C523.631 664.79 522.786 666.121 522.704 666.26C521.485 668.322 523.141 665.709 523.483 665.177C524.742 663.219 523.32 665.573 524.164 664.266C525.003 662.97 526.166 660.997 526.217 661.063C525.46 662.309 523.395 665.51 523.11 666.06C522.024 668.134 523.906 665.792 524.217 665.626C524.516 665.451 524.407 665.702 524.773 665.313C525.444 664.617 523.811 666.924 523.155 668.042C522.494 669.158 526.4 663.405 527.259 662.182C528.12 660.961 527.262 662.238 527.746 661.573C528.231 660.91 528.769 660.047 528.988 659.823C529.209 659.602 527.802 661.861 526.913 663.147C525.036 665.874 522.995 668.688 523.779 667.746C523.826 667.691 524.866 666.187 524.992 666.05C525.964 665.014 526.171 665.056 527.083 664.184C527.211 664.062 528.411 662.42 528.5 662.331C529.436 661.408 527.319 664.107 525.066 667.18C528.134 663.143 530.063 660.714 530.21 660.79C530.3 660.835 528.921 662.568 527.997 663.826C527.717 664.205 528.708 663.05 528.068 663.872C525.97 666.553 523.559 669.504 524.581 668.379C524.63 668.325 525.789 666.866 525.873 666.789C526.424 666.285 524.179 669.048 523.965 669.432C523.795 669.73 525.294 668.155 525.601 667.956C529.378 663.687 528.623 664.763 525.997 667.687C526.148 667.608 526.037 667.807 526.451 667.451C526.592 667.33 527.721 666.126 527.845 665.998C529.813 664.01 527.192 666.794 527.093 666.907C526.651 667.462 526.91 667.271 527.087 667.179L527.069 667.16C527.28 667.085 527.387 667.108 526.403 668.189C526.334 668.265 523.488 671.017 525.605 669.048C525.751 668.912 527.006 667.618 527.168 667.585C527.326 667.549 528.979 666.206 527.73 667.555C527.431 667.882 525.138 670.135 527.003 668.453C527.257 668.224 528.078 667.441 528.547 667.017C530.041 665.667 527.132 668.414 529.645 666.125C532.159 663.835 534.11 662.194 532.479 663.887C532.432 663.937 530.11 666.098 530.172 666.091C530.274 666.08 530.826 665.707 530.857 665.773C530.87 665.804 529.377 667.089 529.354 667.117C528.641 667.979 530.036 666.908 530.778 666.619C530.928 666.579 528.809 668.23 530.568 667.04C532.527 665.789 540.386 660.137 538.821 661.951C538.264 662.799 527.679 668.996 533.321 666.076C532.831 666.533 533.035 666.585 533.346 666.648C533.788 666.721 534.447 666.856 533.219 667.41C533.129 667.458 529.821 668.341 529.869 668.341C529.949 668.349 531.511 668.003 531.621 668.012C532.123 668.042 530.804 668.432 531.034 668.506C531.118 668.537 532.744 668.226 532.846 668.272C532.947 668.321 530.806 668.726 531.856 668.629C532.657 668.553 537.063 667.903 537.591 667.915C533.254 668.615 533.353 668.657 532.223 668.936C532.003 668.99 530.49 669.206 530.308 669.244C529.535 669.4 530.792 669.238 529.95 669.404C529.747 669.444 528.265 669.674 528.016 669.719C525.841 670.112 529.191 669.692 529.774 669.619C531.989 669.344 530.065 669.669 530.941 669.585C531.817 669.5 532.891 669.26 533.427 669.236C534.535 669.184 534.319 669.371 534.405 669.476C534.43 669.521 532.447 669.799 532.405 669.812C531.919 669.99 534.038 669.754 530.108 670.438C540.303 668.875 529.13 670.656 531.192 670.474C531.358 670.459 536.174 669.686 536.874 669.531C537.574 669.377 536.059 669.561 537.152 669.327C537.409 669.271 541.91 668.48 542.182 668.428C544.308 668.014 537.107 669.14 536.71 669.197C532.435 669.82 537.284 668.959 537.617 668.885C539.14 668.532 538.112 668.594 539.197 668.327C539.898 668.153 544.615 667.422 544.463 667.392C543.958 667.289 537.368 668.253 543.044 667.173C544.254 666.939 549.415 666.168 545.337 666.648C545.079 666.676 541.355 667.16 543.685 666.698C543.979 666.64 545.479 666.391 545.603 666.356C546.402 666.126 545.197 666.267 545.749 666.054C546.301 665.844 547.124 665.529 546.585 665.458C546.263 665.414 543.457 665.834 542.769 665.931C540.788 666.215 543.96 665.381 541.577 665.812C539.188 666.276 535.61 667.195 534.048 667.414C537.895 666.513 541.839 665.57 545.701 664.638C545.404 663.99 543.949 663.519 543.752 662.548C543.75 662.538 543.762 662.524 543.785 662.508C544.045 662.318 545.754 661.747 545.774 661.594C545.842 660.864 544.233 660.991 544.479 660.164C544.678 659.52 546.336 657.895 546.519 657.127C542.534 659.28 543.5 657.971 542.922 657.884C542.726 657.859 541.763 658.587 541.397 658.755C540.05 659.39 543.314 657.083 543.756 656.625C545.61 654.638 538.509 660.239 538.511 659.89C538.516 659.881 542.078 656.627 542.282 656.404C543.648 654.99 540.983 657.466 540.641 657.614C540.019 657.89 539.084 658.569 540.011 657.487C540.291 657.172 542.425 655.052 540.634 656.537C540.4 656.732 539.226 657.81 539.151 657.865C537.882 658.782 541.57 655.397 542.738 654.162C543.904 652.927 541.266 655.165 540.522 655.828C538.59 657.535 539.758 656.624 539.577 656.8C537.41 658.889 537.721 658.462 537.485 658.582C533.9 661.936 534.054 661.67 537.256 658.695C537.606 658.37 537.311 658.724 537.485 658.582C540.951 655.238 541.302 654.712 537.96 657.728C536.394 659.142 534.646 660.873 535.191 660.14C535.436 659.809 537.895 657.491 538.516 656.807C539.929 655.242 537.527 657.294 537.788 656.849C537.882 656.686 539.246 655.436 539.356 655.28C539.367 655.264 539.376 655.251 539.384 655.238C539.365 655.241 539.336 655.167 539.317 655.17C539.436 654.791 538.437 655.572 538.79 654.961C538.824 654.901 540.208 653.546 540.181 653.484C539.985 652.981 538.876 653.646 538.535 653.388C538.368 653.26 538.807 652.228 538.506 652.256C537.984 652.287 535.923 654.242 536.149 653.548C536.286 653.099 537.511 651.598 538.26 650.509C539.705 648.391 536.696 651.858 536.248 652.409C536.234 652.428 536.068 652.876 535.405 653.621C534.114 655.242 536.245 652.418 536.248 652.409C535.952 652.76 535.465 652.943 535.642 652.614C535.739 652.433 536.849 650.972 536.878 650.905C537.545 649.354 537.481 648.733 536.671 649.213C536.645 649.24 535.474 650.926 535.426 650.968C534.736 651.598 536.062 649.462 536.751 648.127C537.441 646.794 537.025 647.115 534.984 649.99C535.126 649.55 534.113 650.748 533.512 651.485C532.912 652.221 535.09 648.871 535.125 648.799C536.258 646.52 534.871 648.347 534.442 648.496C534.233 648.572 534.309 647.935 534.413 647.486C534.5 647.126 533.951 647.887 534.174 647.322C534.203 647.246 535.146 645.737 535.178 645.676C536.184 643.796 533.965 647.538 533.539 648.188C531.992 650.553 531.173 651.816 531.74 650.606C531.872 650.33 535.017 644.913 535.145 644.563C535.309 644.119 534.185 646.063 534.39 645.552C534.406 645.51 535.117 644.321 535.039 644.346C534.686 644.444 534.045 645.002 533.891 644.753C533.867 644.723 535.008 642.845 534.99 642.77C534.912 642.424 534.641 642.363 533.933 643.144C533.755 643.342 533.03 644.699 532.795 645.091C531.374 647.462 533.254 643.913 533.275 643.837C533.851 641.948 531.826 644.981 532.293 643.266C532.325 643.168 534.215 639.297 532.397 642.51C532.275 642.724 530.425 646.017 531.587 643.71C531.66 643.566 532.62 641.874 532.453 642.01C532.288 642.146 532.778 640.936 531.677 642.77C531.329 643.347 529.499 646.641 530.808 643.936C530.901 643.748 533.913 637.66 531.686 641.783C531.32 642.461 529.031 646.859 530.102 644.551C530.31 644.103 530.859 643.142 531.123 642.501C531.529 641.513 530.806 642.634 531.714 640.617C531.876 640.26 533.335 637.227 532.102 639.465C531.909 639.815 531.171 641.297 531.053 641.445C530.488 642.153 530.834 641.087 530.159 642.029C529.922 642.36 528.742 644.761 528.363 645.373C527.984 645.985 527.565 646.546 528.055 645.424C528.545 644.301 530.522 640.522 530.583 640.171C530.838 638.641 529.343 640.693 528.792 640.833C528.711 640.854 529.425 639.504 529.352 639.437C529.096 639.186 529.144 637.625 527.5 640.435C526.186 642.687 525.607 644.6 525.001 645.483C524.713 645.905 526.732 641.375 526.778 641.224C527.263 639.701 526.207 641.632 526.324 640.944C526.348 640.801 527.224 638.992 527.235 638.891C527.281 638.528 526.801 639.295 526.774 639.102C526.764 639.011 527.411 637.619 527.321 637.709C527.115 637.907 526.762 638.455 526.075 639.722C526.013 639.838 525.278 641.601 525.18 641.635C525.023 641.684 524.301 642.915 524.776 641.521C524.92 641.103 526.357 637.903 525.283 640.076C525.058 640.529 523.355 644.382 524.751 641.02C524.985 640.461 526.827 635.908 525.457 638.761C525.096 639.512 523.642 642.638 523.817 642.123C523.846 642.041 524.637 640.331 524.674 640.146C524.79 639.525 524.568 639.646 524.667 639.045C524.695 638.881 525.536 637.121 525.553 636.934C525.6 636.416 525.21 636.787 524.818 637.282C524.672 637.468 524.065 638.965 523.99 639.124C522.786 641.718 524.289 638.164 524.357 637.948C524.762 636.655 523.94 638.274 524.009 637.782C524.026 637.65 524.778 635.971 524.837 635.817C525.401 634.315 524.145 637.372 523.957 637.687C523.428 638.582 523.354 638.39 523.324 638.121C523.314 638.02 524.203 636.08 524.184 636.012C524.087 635.57 523.75 635.649 523.057 636.634C522.926 636.823 522.316 638.348 522.161 638.69C521.081 641.084 522.379 637.745 522.49 637.422C522.996 635.945 522.396 637.269 522.416 636.984C522.518 635.563 521.629 636.237 521.016 636.629C520.21 637.126 519.246 638.423 518.915 637.854C518.893 637.82 519.733 635.802 519.724 635.746C519.569 635.118 518.928 635.783 518.813 635.06C518.803 635.004 519.599 633.091 519.606 632.936C519.627 632.606 519.466 632.664 519.13 633.243C518.968 633.522 518.386 635.203 518.236 635.45C517.887 636.03 517.723 636.124 517.734 635.772C517.74 635.618 518.575 633.669 518.523 633.623C518.187 633.268 517.893 632.765 516.51 635.175C516.415 635.34 514.864 639.357 515.097 638.563C515.516 637.443 516.014 636.129 516.465 634.933C516.106 634.062 514.995 635.24 514.319 635.237C514.29 635.237 515.123 633.112 515.072 633.1C514.773 633.025 514.719 632.332 513.653 634.358C513.549 634.556 512.191 638.333 512.316 637.733C512.339 637.623 512.396 637.075 512.661 636.244C512.701 636.119 513.363 634.365 513.34 634.299C513.198 633.945 512.804 634.258 512.184 635.251C512.082 635.415 511.449 637.308 511.371 637.441C510.825 638.37 511.128 636.868 510.339 638.51C509.809 639.616 508.699 642.882 507.5 646.059C507.331 646.507 507.233 646.553 506.569 648.413C504.9 653.091 503.116 658.229 501.333 663.214C500.949 664.288 501.27 663.099 500.402 665.715C500.345 665.89 500.103 666.775 499.806 667.662C499.601 668.274 498.91 670.161 498.655 670.948C498.4 671.735 498.988 670.157 498.699 671.086C498.405 672.026 497.624 674.173 497.604 674.453ZM530.851 654.794C529.746 656.365 533.533 650.444 532.703 651.91C532.659 651.988 530.905 654.717 530.851 654.794ZM538.877 665.164C535.874 665.955 540.102 664.249 542.43 663.647C544.779 663.117 539.799 664.96 538.877 665.164ZM537.11 667.427C534.683 667.748 544.47 665.857 542.526 666.427C542.416 666.46 537.251 667.41 537.11 667.427ZM507.464 647.072C507.432 647.16 507.35 647.227 507.38 647.139C508.101 645.027 508.266 644.894 507.464 647.072ZM534.84 668.816C533.503 668.991 535.027 668.661 536.69 668.445C538.028 668.273 536.504 668.6 534.84 668.816ZM523.753 659.311C523.702 659.403 523.623 659.467 523.906 658.947C524.82 657.273 524.612 657.773 523.753 659.311ZM534.959 670.288C534.554 670.147 526.407 671.343 527.367 671.45C527.54 671.468 529.94 670.917 530.681 670.853C532.032 670.731 526.947 671.665 529.697 671.31C530.2 671.242 534.999 670.29 534.97 670.286C534.966 670.286 534.962 670.287 534.959 670.288ZM526.245 661.869C526.193 661.947 526.102 661.993 526.15 661.914C527.329 660.02 527.52 659.93 526.245 661.869ZM519.789 662.142C519.698 662.317 519.509 662.43 519.588 662.265C521.166 658.974 521.563 658.743 519.789 662.142ZM525.703 667.843C524.241 669.547 524.074 669.752 525.995 667.689C525.866 667.775 525.824 667.766 525.703 667.843Z" fill="#FAEDCD"/>
</svg>
